<svg version="1.1" id="Layer_1" xmlns="http://www.w3.org/2000/svg" xmlns:xlink="http://www.w3.org/1999/xlink" x="0px" y="0px"
	 width="100%" viewBox="0 0 1587 144" enable-background="new 0 0 1587 144" xml:space="preserve">
<path fill="#FFFFFF" opacity="1.000000" stroke="none" 
	d="
M1531.000000,145.000000 
	C1020.666687,145.000000 510.833405,145.000000 1.000068,145.000000 
	C1.000046,97.000031 1.000046,49.000065 1.000023,1.000075 
	C529.999939,1.000050 1058.999878,1.000050 1587.999756,1.000025 
	C1587.999878,48.999935 1587.999878,96.999870 1588.000000,144.999908 
	C1569.166626,145.000000 1550.333374,145.000000 1531.000000,145.000000 
M946.499878,56.234230 
	C1088.492676,57.246040 1230.441162,59.442032 1372.014404,71.888283 
	C1412.496826,75.447250 1452.837769,80.057594 1492.821777,87.472359 
	C1494.420044,87.768723 1496.270386,88.036484 1497.712036,87.513870 
	C1499.553223,86.846352 1501.097778,85.360802 1502.770264,84.227768 
	C1501.206909,83.289345 1499.745850,81.817589 1498.064209,81.495049 
	C1481.237793,78.267670 1464.430786,74.877205 1447.512451,72.201950 
	C1389.918091,63.094666 1331.981812,56.718609 1273.864136,52.275928 
	C1226.523560,48.657066 1179.130493,45.340469 1131.698853,43.388367 
	C1062.769775,40.551506 993.795837,38.552517 924.821899,37.117386 
	C819.333862,34.922512 713.834290,35.841934 608.354675,38.133667 
	C555.707397,39.277523 503.064301,40.829094 450.440277,42.766586 
	C404.150543,44.470856 357.878845,46.756905 311.620514,49.191208 
	C280.178009,50.845844 248.743774,52.841137 217.357605,55.335400 
	C181.165680,58.211571 144.992844,61.443443 108.885956,65.228790 
	C89.042542,67.309128 69.334129,70.735146 49.618568,73.890106 
	C47.569794,74.217957 45.887138,76.833679 44.034607,78.387863 
	C45.794338,80.294731 47.223553,83.277023 49.366886,83.935753 
	C64.450829,88.571625 79.536652,93.383644 94.919998,96.795052 
	C104.209755,98.855148 114.040604,99.130150 123.616745,99.035515 
	C131.197754,98.960602 138.781967,97.231461 146.329010,96.015091 
	C198.156555,87.661995 250.342209,82.333847 302.639801,78.273125 
	C352.467438,74.404182 402.337158,70.849403 452.247589,68.330238 
	C518.316589,64.995506 584.421387,61.820187 650.550232,60.349560 
	C748.848633,58.163525 847.181641,57.529961 946.499878,56.234230 
z"/>
<path fill="#030303" opacity="1.000000" stroke="none" 
	d="
M945.999878,56.234955 
	C847.181641,57.529961 748.848633,58.163525 650.550232,60.349560 
	C584.421387,61.820187 518.316589,64.995506 452.247589,68.330238 
	C402.337158,70.849403 352.467438,74.404182 302.639801,78.273125 
	C250.342209,82.333847 198.156555,87.661995 146.329010,96.015091 
	C138.781967,97.231461 131.197754,98.960602 123.616745,99.035515 
	C114.040604,99.130150 104.209755,98.855148 94.919998,96.795052 
	C79.536652,93.383644 64.450829,88.571625 49.366886,83.935753 
	C47.223553,83.277023 45.794338,80.294731 44.034607,78.387863 
	C45.887138,76.833679 47.569794,74.217957 49.618568,73.890106 
	C69.334129,70.735146 89.042542,67.309128 108.885956,65.228790 
	C144.992844,61.443443 181.165680,58.211571 217.357605,55.335400 
	C248.743774,52.841137 280.178009,50.845844 311.620514,49.191208 
	C357.878845,46.756905 404.150543,44.470856 450.440277,42.766586 
	C503.064301,40.829094 555.707397,39.277523 608.354675,38.133667 
	C713.834290,35.841934 819.333862,34.922512 924.821899,37.117386 
	C993.795837,38.552517 1062.769775,40.551506 1131.698853,43.388367 
	C1179.130493,45.340469 1226.523560,48.657066 1273.864136,52.275928 
	C1331.981812,56.718609 1389.918091,63.094666 1447.512451,72.201950 
	C1464.430786,74.877205 1481.237793,78.267670 1498.064209,81.495049 
	C1499.745850,81.817589 1501.206909,83.289345 1502.770264,84.227791 
	C1501.097778,85.360802 1499.553223,86.846352 1497.712036,87.513870 
	C1496.270386,88.036484 1494.420044,87.768723 1492.821777,87.472359 
	C1452.837769,80.057594 1412.496826,75.447250 1372.014404,71.888283 
	C1230.441162,59.442032 1088.492676,57.246040 945.999878,56.234955 
z"/>
</svg>